<svg id="Capa_1" enable-background="new 0 0 512 512" viewBox="0 0 512 512" xmlns="http://www.w3.org/2000/svg"><g><g><g><path d="m503.237 98.953v-19.259c0-3.736-2.718-6.916-6.408-7.499l-10.316-1.629c-2.136-.337-3.951-1.778-4.713-3.802-.529-1.406-1.106-2.788-1.729-4.145-.907-1.977-.65-4.294.629-6.053l6.151-8.458c2.197-3.021 1.87-7.192-.772-9.833l-13.618-13.618c-2.642-2.642-6.812-2.969-9.833-.772l-8.458 6.151c-1.759 1.28-4.076 1.536-6.053.629-1.357-.623-2.739-1.2-4.145-1.729-2.024-.762-3.465-2.577-3.802-4.713l-1.629-10.316c-.583-3.69-3.763-6.408-7.499-6.408h-19.259c-3.736 0-6.916 2.718-7.499 6.408l-1.629 10.316c-.337 2.136-1.778 3.951-3.802 4.713-1.406.529-2.787 1.106-4.145 1.729-1.977.907-4.294.65-6.053-.629l-8.458-6.151c-3.021-2.197-7.192-1.87-9.833.772l-13.618 13.618c-2.642 2.642-2.969 6.812-.772 9.833l6.151 8.458c1.28 1.759 1.536 4.076.629 6.053-.623 1.357-1.2 2.739-1.729 4.145-.762 2.024-2.577 3.465-4.713 3.802l-10.316 1.629c-3.69.583-6.408 3.763-6.408 7.499v19.259c0 3.736 2.718 6.916 6.408 7.499l10.316 1.629c2.136.337 3.951 1.778 4.713 3.802.529 1.406 1.106 2.787 1.729 4.145.907 1.977.65 4.294-.629 6.053l-6.151 8.458c-2.197 3.021-1.87 7.192.772 9.833l13.618 13.618c2.642 2.642 6.812 2.969 9.833.772l8.458-6.151c1.759-1.28 4.076-1.536 6.053-.629 1.357.623 2.739 1.2 4.145 1.729 2.024.762 3.465 2.577 3.802 4.713l1.629 10.316c.583 3.69 3.763 6.408 7.499 6.408h19.259c3.736 0 6.916-2.718 7.499-6.408l1.629-10.316c.337-2.136 1.778-3.951 3.802-4.713 1.406-.529 2.787-1.106 4.145-1.729 1.977-.907 4.294-.65 6.053.629l8.458 6.151c3.021 2.197 7.192 1.87 9.833-.772l13.618-13.618c2.642-2.642 2.969-6.812.772-9.833l-6.151-8.458c-1.28-1.759-1.536-4.076-.629-6.053.623-1.357 1.2-2.739 1.729-4.145.762-2.024 2.577-3.465 4.713-3.802l10.316-1.629c3.691-.583 6.408-3.764 6.408-7.499zm-81.823 17.645c-15.063 0-27.274-12.211-27.274-27.274s12.211-27.274 27.274-27.274 27.274 12.211 27.274 27.274c.001 15.062-12.211 27.274-27.274 27.274z" fill="#60b7ff"/><path d="m496.83 72.195-10.316-1.629c-2.136-.337-3.951-1.778-4.713-3.802-.529-1.406-1.106-2.788-1.729-4.145-.907-1.977-.65-4.294.629-6.053l6.151-8.458c2.197-3.021 1.87-7.192-.772-9.833l-13.618-13.618c-1.871-1.871-4.507-2.574-6.961-2.049 6.195 11.521 9.713 24.696 9.713 38.694 0 45.19-36.633 81.823-81.823 81.823-13.998 0-27.172-3.518-38.694-9.713-.525 2.453.178 5.09 2.049 6.961l13.618 13.618c2.642 2.641 6.812 2.969 9.833.772l8.458-6.151c1.759-1.28 4.076-1.536 6.053-.629 1.357.623 2.739 1.2 4.145 1.729 2.024.762 3.465 2.577 3.802 4.713l1.629 10.316c.583 3.69 3.763 6.408 7.499 6.408h19.259c3.736 0 6.916-2.718 7.499-6.408l1.629-10.316c.337-2.136 1.778-3.951 3.802-4.713 1.406-.529 2.787-1.106 4.145-1.729 1.977-.907 4.294-.65 6.053.629l8.458 6.151c3.021 2.197 7.192 1.87 9.833-.772l13.618-13.618c2.642-2.642 2.969-6.812.772-9.834l-6.151-8.458c-1.28-1.759-1.536-4.076-.629-6.053.623-1.357 1.2-2.739 1.729-4.145.762-2.024 2.577-3.465 4.713-3.802l10.316-1.629c3.69-.583 6.408-3.763 6.408-7.499v-19.259c0-3.736-2.717-6.917-6.407-7.499z" fill="#26a6fe"/></g><g><circle cx="88.06" cy="42.567" fill="#fed2a4" r="35.067"/><path d="m88.06 77.634c-31.784.001-57.552 25.758-57.552 57.542v19.184c0 9.271 7.515 16.786 16.786 16.786h81.532c9.271 0 16.786-7.515 16.786-16.786v-19.184c.001-31.784-25.767-57.541-57.552-57.542z" fill="#fd8087"/><path d="m88.06 77.634c-4.526 0-8.926.53-13.151 1.519 25.463 5.936 44.439 28.752 44.439 56.023v19.184c0 9.271-7.515 16.786-16.786 16.786h26.264c9.271 0 16.786-7.516 16.786-16.786v-19.184c.001-31.784-25.767-57.541-57.552-57.542z" fill="#fe646f"/></g><g><circle cx="254.737" cy="256" fill="#00f2a6" r="81.823"/><path d="m307.268 193.281c5.796 11.228 9.089 23.959 9.089 37.465 0 45.19-36.633 81.823-81.823 81.823-20.001 0-38.317-7.186-52.531-19.104 13.595 26.338 41.052 44.358 72.734 44.358 45.19 0 81.823-36.633 81.823-81.823 0-25.189-11.39-47.71-29.292-62.719z" fill="#0ed290"/><g><path d="m235.451 245.04 11.429 11.429 27.143-27.143c6.312-6.312 16.545-6.312 22.857 0 6.312 6.312 6.312 16.545 0 22.857l-38.572 38.572c-6.312 6.312-16.545 6.312-22.857 0l-22.857-22.857c-6.312-6.312-6.312-16.545 0-22.857 6.312-6.312 16.545-6.312 22.857-.001z" fill="#eaf6ff"/></g></g><g><path d="m152.711 504.5h-129.301v-147.484c0-8.926 7.236-16.163 16.163-16.163h96.976c8.926 0 16.163 7.236 16.163 16.163v147.484z" fill="#7a6d79"/><path d="m152.711 357.016c0-8.926-7.236-16.163-16.163-16.163h-26.264c8.926 0 16.163 7.236 16.163 16.163v147.484h26.264z" fill="#685e68"/></g><path d="m389.089 385.301v107.077c0 6.695 5.427 12.122 12.122 12.122h74.752c6.695 0 12.122-5.427 12.122-12.122v-107.077c0-6.695-5.427-12.122-12.122-12.122h-74.752c-6.695 0-12.122 5.427-12.122 12.122z" fill="#c4e2ff"/><path d="m356.764 352.976v107.077c0 6.695 5.427 12.122 12.122 12.122h74.752c6.695 0 12.122-5.427 12.122-12.122v-93.975c0-3.215-1.277-6.298-3.55-8.572l-13.102-13.102c-2.273-2.273-5.357-3.55-8.572-3.55h-61.65c-6.695 0-12.122 5.427-12.122 12.122z" fill="#eaf6ff"/></g><g><path d="m421.414 54.549c-19.175 0-34.774 15.6-34.774 34.774s15.6 34.774 34.774 34.774 34.774-15.6 34.774-34.774-15.599-34.774-34.774-34.774zm0 54.549c-10.903 0-19.774-8.871-19.774-19.774s8.871-19.774 19.774-19.774 19.774 8.871 19.774 19.774-8.871 19.774-19.774 19.774z"/><path d="m497.998 64.786-9.498-1.499c-.389-.993-.805-1.991-1.244-2.982l5.662-7.785c4.396-6.044 3.75-14.265-1.533-19.549l-13.618-13.618c-5.283-5.283-13.504-5.929-19.549-1.533l-7.785 5.662c-.985-.437-1.982-.853-2.981-1.243l-1.5-9.5c-1.167-7.382-7.436-12.739-14.908-12.739h-19.26c-7.474 0-13.742 5.357-14.906 12.738l-1.5 9.499c-.998.391-1.995.807-2.982 1.244l-7.785-5.662c-6.043-4.395-14.265-3.749-19.549 1.533l-13.618 13.618c-5.283 5.284-5.929 13.505-1.533 19.549l5.662 7.785c-.437.985-.853 1.983-1.244 2.982l-9.499 1.499c-7.381 1.166-12.738 7.436-12.738 14.907v19.26c0 7.472 5.357 13.741 12.739 14.907l9.498 1.499c.391.998.807 1.996 1.244 2.982l-5.662 7.785c-4.396 6.044-3.75 14.265 1.533 19.549l13.618 13.618c5.284 5.283 13.504 5.929 19.549 1.533l7.785-5.662c.985.437 1.983.853 2.982 1.244l1.5 9.497c1.164 7.383 7.433 12.74 14.906 12.74h19.26c7.472 0 13.741-5.357 14.907-12.738l1.5-9.5c.998-.39 1.995-.806 2.981-1.243l7.785 5.662c6.044 4.396 14.265 3.749 19.549-1.533l13.618-13.618c5.283-5.284 5.929-13.505 1.533-19.549l-5.662-7.785c.437-.985.853-1.983 1.244-2.982l9.499-1.499c7.381-1.166 12.738-7.436 12.738-14.907v-19.26c.001-7.47-5.356-13.74-12.738-14.906zm-2.261 34.167c0 .046-.033.084-.077.091l-10.318 1.628c-4.812.762-8.858 4.045-10.56 8.567-.462 1.227-.977 2.459-1.526 3.661-2.029 4.423-1.501 9.631 1.38 13.591l6.151 8.458c.026.037.022.087-.01.119l-13.618 13.618c-.032.034-.083.035-.119.01l-8.457-6.151c-3.963-2.882-9.168-3.409-13.59-1.382-1.204.552-2.437 1.066-3.661 1.527-4.526 1.703-7.81 5.751-8.568 10.562l-1.629 10.315c-.007.045-.045.078-.091.078h-19.26c-.045 0-.083-.032-.09-.078l-1.629-10.317c-.762-4.812-4.045-8.858-8.567-10.56-1.227-.462-2.459-.977-3.659-1.526-1.783-.818-3.694-1.221-5.6-1.221-2.82 0-5.629.881-7.993 2.601l-8.458 6.151c-.036.026-.087.024-.119-.01l-13.618-13.618c-.032-.032-.036-.082-.01-.119l6.151-8.457c2.881-3.961 3.409-9.169 1.382-13.59-.552-1.204-1.066-2.437-1.527-3.661-1.702-4.524-5.749-7.808-10.563-8.569l-10.314-1.628c-.045-.007-.078-.045-.078-.091v-19.26c0-.046.033-.084.077-.091l10.318-1.628c4.812-.762 8.858-4.045 10.56-8.567.462-1.227.977-2.459 1.526-3.661 2.029-4.423 1.501-9.631-1.38-13.591l-6.151-8.458c-.026-.037-.022-.087.01-.119l13.618-13.618c.031-.035.082-.036.119-.01l8.459 6.152c3.961 2.88 9.169 3.408 13.588 1.381 1.204-.552 2.437-1.066 3.661-1.527 4.524-1.702 7.808-5.749 8.569-10.562l1.629-10.317c.007-.044.045-.076.09-.076h19.26c.046 0 .084.033.091.078l1.629 10.314c.759 4.812 4.042 8.86 8.566 10.562 1.227.462 2.459.977 3.661 1.526 4.42 2.028 9.629 1.5 13.591-1.38l8.458-6.151c.036-.025.087-.024.119.01l13.618 13.618c.032.032.036.082.01.119l-6.151 8.457c-2.881 3.961-3.409 9.169-1.382 13.59.557 1.214 1.07 2.445 1.527 3.661 1.702 4.524 5.749 7.808 10.563 8.569l10.314 1.628c.045.007.078.045.078.091z"/><path d="m47.297 178.65h23.26c4.142 0 7.5-3.357 7.5-7.5s-3.358-7.5-7.5-7.5h-23.26c-5.123 0-9.29-4.168-9.29-9.29v-19.18c0-27.589 22.453-50.041 50.047-50.05 27.604.009 50.062 22.461 50.062 50.05v19.181c0 5.122-4.167 9.29-9.29 9.29h-23.27c-4.142 0-7.5 3.357-7.5 7.5s3.358 7.5 7.5 7.5h23.27c13.394 0 24.29-10.896 24.29-24.29v-19.181c0-26.409-15.837-49.187-38.513-59.366 9.758-7.807 16.023-19.806 16.023-33.246.001-23.472-19.094-42.568-42.565-42.568s-42.568 19.096-42.568 42.567c0 13.436 6.259 25.438 16.013 33.245-22.668 10.181-38.499 32.96-38.499 59.367v19.181c0 13.394 10.897 24.29 24.29 24.29zm40.764-163.65c15.201 0 27.567 12.366 27.567 27.567 0 15.2-12.366 27.566-27.567 27.566s-27.568-12.365-27.568-27.566 12.367-27.567 27.568-27.567z"/><path d="m254.737 166.677c-49.253 0-89.323 40.07-89.323 89.323s40.07 89.323 89.323 89.323 89.323-40.07 89.323-89.323-40.07-89.323-89.323-89.323zm0 163.646c-40.982 0-74.323-33.341-74.323-74.323s33.341-74.323 74.323-74.323 74.323 33.341 74.323 74.323-33.34 74.323-74.323 74.323z"/><path d="m268.721 224.022-21.841 21.84-6.125-6.126c-9.226-9.225-24.237-9.225-33.464.001-4.469 4.469-6.93 10.411-6.93 16.731 0 6.321 2.461 12.263 6.931 16.732l22.856 22.856c4.47 4.47 10.412 6.932 16.732 6.932 6.321 0 12.264-2.462 16.732-6.931l38.572-38.572c9.226-9.227 9.225-24.238-.001-33.464-9.227-9.224-24.239-9.222-33.462.001zm22.856 22.858-38.572 38.572c-1.636 1.636-3.811 2.537-6.125 2.537-2.313 0-4.489-.901-6.125-2.538l-22.857-22.857c-1.636-1.636-2.537-3.811-2.537-6.125 0-2.313.901-4.489 2.537-6.125 1.689-1.689 3.907-2.533 6.125-2.533s4.437.844 6.125 2.533l11.429 11.429c2.928 2.927 7.677 2.929 10.606 0l27.144-27.143c3.376-3.378 8.872-3.378 12.25 0 3.378 3.377 3.378 8.873 0 12.25z"/><path d="m55.735 380.679h64.65c4.142 0 7.5-3.357 7.5-7.5s-3.358-7.5-7.5-7.5h-64.65c-4.142 0-7.5 3.357-7.5 7.5s3.358 7.5 7.5 7.5z"/><path d="m55.735 413.678h64.65c4.142 0 7.5-3.357 7.5-7.5s-3.358-7.5-7.5-7.5h-64.65c-4.142 0-7.5 3.357-7.5 7.5s3.358 7.5 7.5 7.5z"/><path d="m55.735 446.676h64.65c4.142 0 7.5-3.357 7.5-7.5s-3.358-7.5-7.5-7.5h-64.65c-4.142 0-7.5 3.357-7.5 7.5s3.358 7.5 7.5 7.5z"/><path d="m209.28 96.823h72.808l-11.441 11.441c-2.929 2.929-2.929 7.678.001 10.606 1.464 1.464 3.384 2.196 5.303 2.196s3.839-.732 5.304-2.197l24.243-24.244c2.929-2.929 2.929-7.677 0-10.605l-24.243-24.244c-2.93-2.929-7.679-2.93-10.606-.001-2.93 2.929-2.93 7.678-.001 10.606l11.441 11.441h-72.809c-4.142 0-7.5 3.357-7.5 7.5s3.358 7.501 7.5 7.501z"/><path d="m421.414 203.043c-4.143 0-7.5 3.357-7.5 7.5v72.808l-11.441-11.441c-2.928-2.928-7.677-2.929-10.606.001-2.929 2.929-2.929 7.678.001 10.606l24.244 24.243c1.464 1.464 3.384 2.196 5.303 2.196s3.839-.732 5.303-2.196l24.244-24.243c2.93-2.929 2.93-7.678.001-10.606s-7.678-2.93-10.606-.001l-11.441 11.441v-72.808c-.002-4.143-3.359-7.5-7.502-7.5z"/><path d="m300.194 415.177h-72.808l11.441-11.44c2.929-2.93 2.929-7.678 0-10.607-2.929-2.928-7.678-2.928-10.606 0l-24.244 24.244c-2.929 2.93-2.929 7.678 0 10.607l24.244 24.244c1.464 1.464 3.384 2.196 5.303 2.196s3.839-.732 5.303-2.196c2.929-2.93 2.929-7.678 0-10.607l-11.441-11.44h72.808c4.143 0 7.5-3.357 7.5-7.5s-3.357-7.501-7.5-7.501z"/><path d="m167.358 497h-7.151v-139.98c0-13.052-10.614-23.67-23.66-23.67h-96.97c-13.052 0-23.67 10.618-23.67 23.67v35.391c0 4.143 3.358 7.5 7.5 7.5s7.5-3.357 7.5-7.5v-35.391c0-4.78 3.889-8.67 8.67-8.67h96.97c4.775 0 8.66 3.89 8.66 8.67v139.98h-52.172v-24.825c0-4.143-3.358-7.5-7.5-7.5s-7.5 3.357-7.5 7.5v24.825h-47.128v-69.59c0-4.143-3.358-7.5-7.5-7.5s-7.5 3.357-7.5 7.5v69.59h-7.144c-4.142 0-7.5 3.357-7.5 7.5s3.358 7.5 7.5 7.5h158.596c4.142 0 7.5-3.357 7.5-7.5s-3.359-7.5-7.501-7.5z"/><path d="m475.963 365.679h-12.726c-.102-5.105-2.12-9.881-5.725-13.471l-13.102-13.111c-3.653-3.652-8.71-5.747-13.874-5.747h-61.649c-10.818 0-19.62 8.807-19.62 19.631v32.109c0 4.143 3.357 7.5 7.5 7.5s7.5-3.357 7.5-7.5v-32.11c0-2.554 2.072-4.631 4.62-4.631h61.649c1.216 0 2.406.493 3.265 1.353l13.113 13.122c.865.861 1.342 2.018 1.342 3.256v93.97c0 2.548-2.072 4.62-4.619 4.62h-74.75c-2.548 0-4.62-2.072-4.62-4.62v-39.96c0-4.143-3.357-7.5-7.5-7.5s-7.5 3.357-7.5 7.5v39.96c0 10.818 8.802 19.62 19.62 19.62h12.701v12.708c0 10.819 8.803 19.622 19.622 19.622h74.752c10.819 0 19.622-8.803 19.622-19.622v-107.077c.001-10.82-8.802-19.622-19.621-19.622zm4.622 126.699c0 2.549-2.073 4.622-4.622 4.622h-74.752c-2.549 0-4.622-2.073-4.622-4.622v-12.708h47.049c10.818 0 19.619-8.802 19.619-19.62v-79.371h12.706c2.549 0 4.622 2.073 4.622 4.622z"/><path d="m389.089 380.679h34.346c4.143 0 7.5-3.357 7.5-7.5s-3.357-7.5-7.5-7.5h-34.346c-4.143 0-7.5 3.357-7.5 7.5s3.357 7.5 7.5 7.5z"/><path d="m389.089 413.678h34.346c4.143 0 7.5-3.357 7.5-7.5s-3.357-7.5-7.5-7.5h-34.346c-4.143 0-7.5 3.357-7.5 7.5s3.357 7.5 7.5 7.5z"/><path d="m389.089 446.676h17.173c4.143 0 7.5-3.357 7.5-7.5s-3.357-7.5-7.5-7.5h-17.173c-4.143 0-7.5 3.357-7.5 7.5s3.357 7.5 7.5 7.5z"/></g></g><g/><g/><g/><g/><g/><g/><g/><g/><g/><g/><g/><g/><g/><g/><g/></svg>