<svg id="Layer_1" enable-background="new 0 0 500 500" viewBox="0 0 500 500" xmlns="http://www.w3.org/2000/svg"><g clip-rule="evenodd" fill-rule="evenodd"><path d="m88.693 77.967h113.94v-19.309h104.476v-28.896h114.641v36.685h-61.353v30.677h-113.94v17.529z" fill="#19cfba"/><path d="m135.928 418.896v35.465c0 7.23-5.917 13.147-13.148 13.147-7.23 0-13.147-5.916-13.147-13.147v-35.465l-24.219-92.499c-2.407-9.195.183-18.304 7.069-24.855s15.8-7.385 25.177-5.824l16.077 2.678 32.347-23.584 14.321 3.313-1.304 14.706-41 36.073 10.149 40.596 28.196 21.205 15.503 40.69c6.206 16.288-18.575 24.846-24.838 8.63l-13.597-35.208-27.175-17.787z" fill="#ffe177"/><path d="m337.615 296.03-2.817 49.025c-.415 7.219-5.917 13.147-13.147 13.147s-13.403-5.921-13.147-13.147l1.928-54.462c.156-4.416 1.971-7.813 4.338-11.545l19.181-30.251-7.917-26.391-48.781 21.304 14.744-29.099 25.272-18.499c6.463-17.805 18.651-24.1 35.059-21.912l70.118-74.5c11.784 8.426 13.257 20.108 4.382 35.059l-13.147 8.764-48.206 56.97 16.525 34.778c1.708 3.594 1.112 7.405-.233 11.151l-6.096 16.988 16.056 68.182c1.657 7.037-1.644 14.323-8.533 16.519s-14.294-1.654-16.519-8.533l-11.443-35.374-6.745-19.048z" fill="#fa6e85"/><path d="m237.785 365.786-8.414 43.008c-1.388 7.096-8.33 11.767-15.426 10.378-7.096-1.388-11.767-8.33-10.378-15.426l8.414-43.008-8.274-40.168c-.65-3.161.487-5.855.54-9.081l.602-37.076-35.771 25.59c-10.408-.095-14.959-5.419-10.143-19.105l45.556-34.958c1.628-15.846 11.859-23.144 30.676-21.911l34.55 3.566 21.176-16.478 6.952 5.998c5.854 5.05-1.278 17.98-6.891 23.294l-7.435 7.04c-4.435 4.199-9.577 6.185-15.673 5.811l-21.264-1.305v42.091l25.742 13.544c4.31 2.268 7.185 5.777 8.615 10.433l10.884 35.431c2.123 6.912-1.851 14.297-8.772 16.393-6.92 2.096-14.266-1.861-16.393-8.771l-9.256-30.053-28.35-6.3z" fill="#88c8fe"/><g fill="#f0b16e"><circle cx="229.917" cy="196.417" r="22.953"/><ellipse cx="109.53" cy="266.393" rx="22.34" ry="22.34" transform="matrix(.707 -.707 .707 .707 -156.288 155.475)"/><circle cx="308.951" cy="158.047" r="23.774"/></g><path d="m397.947 329.455-15.46-65.698 5.463-15.198c2.209-6.149 2.209-11.403-.058-16.076l-14.704-31.03 42.253-49.965v160.915zm-16.564 12.507c3.836-1.232 5.056-5.422 4.184-8.921l-16.041-68.191c-.291-1.197-.233-2.464.232-3.633l6.102-16.988c1.279-3.65.93-5.248.465-6.23l-16.564-34.773c-1.046-2.278-.697-4.987.93-6.905l48.181-56.974c1.043-1.205 5.022-3.645 6.567-4.673v-18.069l-58.294 61.972c-1.453 1.505-3.487 2.232-5.58 1.964-14.297-1.912-23.015 3.557-28.13 17.732-.465 1.203-1.221 2.243-2.267 2.993l-17.378 12.711c2.224 2.81 3.023 6.224 2.674 9.967l17.087-7.451c3.549-1.545 7.614.348 8.776 4.039l7.904 26.386c.523 1.784.233 3.714-.755 5.283l-19.176 30.264c-2.15 3.376-3.254 5.585-3.313 8.334l-1.918 54.458c-.058 1.587.523 3.138 1.743 4.359 4.233 4.366 11.301 1.689 11.682-4.958l2.79-49.023c.116-1.569.814-3.057 1.918-4.179l10.869-10.874c3.37-3.365 9.069-1.978 10.578 2.4l6.742 19.046 11.508 35.546c1.161 3.545 4.939 5.51 8.484 4.388zm-9.473 12.839h-33.418c1.627-2.772 2.615-5.963 2.848-9.404l2.673-46.588 1.918-1.935 3.313 9.357 11.449 35.301c1.918 6.01 6.568 10.45 12.089 12.443zm-67.186 0h-5.986c-.116-1.099-.349-2.185-.639-3.266l-10.927-35.424c-1.918-6.277-5.986-11.2-11.74-14.239l-22.318-11.734v-31.379l14.472.889c7.788.477 14.646-2.063 20.458-7.561l7.439-7.044c.988-.953 2.15-2.226 3.313-3.708l23.306-10.165 4.94 16.64-17.61 27.77c-2.441 3.894-5.056 8.555-5.289 14.756l-1.918 54.464c-.175 3.549.755 6.972 2.499 10.001zm-19.412 5.573c.814-1.581.988-3.383.465-5.068l-10.868-35.424c-.93-3.057-2.673-5.173-5.463-6.637l-25.747-13.548c-2.092-1.11-3.429-3.295-3.429-5.678v-42.09c0-3.659 3.157-6.643 6.8-6.416l21.272 1.302c4.243.261 7.672-1.029 10.868-4.063l7.439-7.044c4.475-4.243 7.672-11.827 7.032-13.838l-2.906-2.476-16.971 13.245c-1.337 1.017-2.964 1.482-4.649 1.319l-33.593-3.47c-1.802.331-3.661.511-5.521.511-1.511 0-3.022-.105-4.475-.325-11.333 1.715-13.832 8.811-14.588 15.896-.174 1.761-1.046 3.365-2.441 4.44l-43.996 33.75c-1.395 4.557-1.046 6.841-.581 7.515.291.436 1.337.942 3.313 1.162l33.942-24.282c4.221-3.021 10.277-.001 10.171 5.329l-.581 37.08c-.062 2.49-.96 6.468-.698 7.683l8.311 40.172c.116.819.174 1.685 0 2.522l-8.427 43.008c-.349 1.749 0 3.539 1.046 5.033 3.449 5.076 11.02 3.257 12.147-2.447l8.137-41.724-8.427-39.782c-.997-4.645 3.15-8.618 7.672-7.608l28.362 6.306c2.267.494 4.068 2.162 4.708 4.377l9.299 30.047c1.046 3.557 4.824 5.585 8.369 4.516.291-.087.581-.203.872-.331l2.848-2.528c.114-.143.172-.277.288-.434zm-48.122 42.444 32.547-28.577c-4.243-2.388-7.556-6.323-9.125-11.31l-8.137-26.479-14.937-3.319 6.626 31.286c.174.848.232 1.726.058 2.569zm-36.964 32.483c-.058-2.313-.523-4.766-1.569-7.317l-16.157-39.73c-.407-1.075-1.162-2.011-2.092-2.714l-26.386-19.836-8.602-34.593 37.777-33.267 15.111-10.822-.349 24.335c-.13 2.981-1.349 5.913-.407 10.479l7.962 38.905-8.137 41.741c-1.971 10.163 4.364 20.148 14.356 22.696zm-16.622 5.26c-2.615 1.052-7.555 1.412-9.822-3.999l-14.239-34.238c-.465-1.191-1.337-2.203-2.383-2.912l-27.2-17.784c-4.971-3.244-11.388 1.556-9.648 7.224l9.299 30.966v34.517c0 1.139-.291 2.202-.756 3.144l-4.01 3.289c-.64.18-1.279.285-1.976.285-3.661 0-6.684-3.011-6.684-6.719v-35.464c0-.552-.058-1.104-.233-1.633l-24.178-92.491c-1.86-6.893.116-13.67 5.231-18.575 4.534-4.307 10.81-5.626 19.703-4.144l16.099 2.673c1.686.291 3.429-.128 4.824-1.139l13.368-9.764c.752 4.039 2.966 7.459 6.451 9.624l-23.48 20.627c-1.802 1.587-2.557 4.051-1.976 6.387l10.113 40.59c.407 1.43 1.221 2.691 2.383 3.58l26.793 20.132 15.46 38.08c1.975 4.803-1.163 6.913-3.139 7.744zm-33.767 1.529h12.321c-.058-.203-.174-.384-.233-.587l-13.484-32.424-10.752-7.05 4.533 14.989c.174.599.233 1.221.233 1.854v27.368c2.511-2.067 4.333-4.15 7.382-4.15zm-56.086-177.24c0-8.77 7.091-15.913 15.867-15.913s15.925 7.143 15.925 15.913c0 8.776-7.149 15.913-15.925 15.913-8.776-.001-15.867-7.138-15.867-15.913zm136.29-81.397c9.532 0 17.32 7.782 17.32 17.354 0 7.991-5.405 14.733-12.786 16.732-3.08-.145-5.87-.093-8.427.163-7.73-1.767-13.484-8.671-13.484-16.895-.001-9.571 7.787-17.354 17.377-17.354zm80.204-6.875c-9.59 0-17.378-7.782-17.378-17.354 0-9.561 7.788-17.343 17.378-17.343 9.531 0 17.319 7.782 17.319 17.343.001 9.572-7.787 17.354-17.319 17.354zm105.196-116.581h-54.923c-3.545 0-6.451 2.871-6.451 6.422v24.247h-107.52c-3.545 0-6.393 2.883-6.393 6.428v9.438l-95.374-22.172h57.945c3.545 0 6.451-2.871 6.451-6.422v-12.885h98.047c3.545 0 6.393-2.871 6.393-6.428v-22.463h101.825zm12.844 35.987v-66.244c0-3.557-2.848-6.428-6.393-6.428h-114.669c-3.545 0-6.451 2.871-6.451 6.428v22.463h-98.047c-3.545 0-6.393 2.871-6.393 6.422v12.891h-107.521c-7.553 0-8.863 10.958-1.453 12.682l157.735 36.685c4.098.886 7.904-2.113 7.904-6.259v-11.107h107.52c3.545 0 6.393-2.871 6.393-6.422v-24.254h48.53v25.014l-65.5 69.603c-3.836-.267-7.439-.093-10.81.511 5.771-19.658-8.837-38.94-28.885-38.94-16.68 0-30.222 13.548-30.222 30.193 0 17.829 15.422 31.831 33.244 30.048-.407.889-.814 1.808-1.221 2.749l-18.191 13.332c-2.15-1.075-4.824-.872-6.8.668l-19.121 14.89-14.181-1.465c4.068-5.138 6.451-11.606 6.451-18.639 0-16.657-13.542-30.205-30.164-30.205-16.68 0-30.222 13.548-30.222 30.205 0 8.915 3.894 16.942 10.055 22.48-7.265 5.155-10.171 12.815-11.275 19.133l-35.918 27.548-.291-.372-30.164 21.986-8.834-1.476c8.95-4.882 14.995-14.373 14.995-25.258 0-15.855-12.903-28.763-28.769-28.763-15.809 0-28.711 12.908-28.711 28.763 0 11.496 6.742 21.434 16.506 26.031-3.429 1.372-6.509 3.359-9.241 5.98-8.543 8.108-11.856 19.749-8.834 31.135l24.003 91.7v34.639c0 3.359.814 6.527 2.325 9.287l-38.301.221c-3.603.017-6.451 2.906-6.393 6.463.029 3.588 2.861 6.392 6.451 6.382l56.434-.325c3.671-.011 5.469-3.02 7.788-4.545 2.615-1.331 4.94-3.231 6.742-5.55l13.716-11.327h42.776c1.569 0 3.08-.569 4.243-1.598l90.492-79.466c1.86-1.157 3.545-2.61 4.94-4.336l2.15-1.889h77.822c1.685 0 3.313-.663 4.475-1.825l47.367-46.117c1.22-1.203 1.918-2.865 1.918-4.603v-173.553c1.565-1.042 3.172-1.881 4.185-3.534 13.077-22.074 3.894-35.389-4.185-42.032z" fill="#1e2f3f"/></g></svg>