<svg clip-rule="evenodd" fill-rule="evenodd" stroke-linejoin="round" stroke-miterlimit="2" viewBox="0 0 510 510" xmlns="http://www.w3.org/2000/svg"><path d="m92.107 17.79c40.664 0 73.611 32.947 73.611 73.612 0 40.664-32.947 73.611-73.611 73.611-40.665 0-73.612-32.947-73.612-73.611 0-40.665 32.947-73.612 73.612-73.612z" fill="#eceff1"/><path d="m99.607 164.636c-2.466.25-4.969.377-7.5.377-40.665 0-73.612-32.947-73.612-73.611 0-40.665 32.947-73.612 73.612-73.612 2.531 0 5.034.128 7.5.377-37.14 3.756-66.112 35.102-66.112 73.235 0 38.132 28.972 69.478 66.112 73.234z" fill="#d1d1d6"/><path d="m162.718 366.597c.796 0 1.559.316 2.121.878.563.563.879 1.326.879 2.122v120.846c0 .796-.316 1.559-.879 2.122-.562.562-1.325.878-2.121.878h-25.908c-.796 0-1.559-.316-2.121-.878-.563-.563-.879-1.326-.879-2.122v-120.846c0-.796.316-1.559.879-2.122.562-.562 1.325-.878 2.121-.878z" fill="#8ac9fe"/><path d="m152.718 366.597h10c.796 0 1.559.316 2.121.878.563.563.879 1.326.879 2.122v120.846c0 .796-.316 1.559-.879 2.122-.562.562-1.325.878-2.121.878h-10c.796 0 1.559-.316 2.121-.878.563-.563.879-1.326.879-2.122v-120.846c0-.796-.316-1.559-.879-2.122-.562-.562-1.325-.878-2.121-.878z" fill="#60b7ff"/><path d="m103.454 400.119c.796 0 1.559.316 2.121.879.563.562.879 1.325.879 2.121v87.324c0 .796-.316 1.559-.879 2.122-.562.562-1.325.878-2.121.878h-25.908c-.796 0-1.559-.316-2.122-.878-.562-.563-.878-1.326-.878-2.122v-87.324c0-.796.316-1.559.878-2.121.563-.563 1.326-.879 2.122-.879z" fill="#6cf5c2"/><path d="m93.454 400.119h10c.796 0 1.559.316 2.121.879.563.562.879 1.325.879 2.121v87.324c0 .796-.316 1.559-.879 2.122-.562.562-1.325.878-2.121.878h-10c.796 0 1.559-.316 2.121-.878.563-.563.879-1.326.879-2.122v-87.324c0-.796-.316-1.559-.879-2.121-.562-.563-1.325-.879-2.121-.879z" fill="#00e499"/><path d="m15.24 435.193c0-1.657 1.343-3 3-3h25.95c1.657 0 3 1.343 3 3v55.25c0 1.657-1.343 3-3 3h-25.95c-1.657 0-3-1.343-3-3z" fill="#ffe177"/><path d="m34.19 432.193h10c1.657 0 3 1.343 3 3v55.25c0 1.657-1.343 3-3 3h-10c1.657 0 3-1.343 3-3v-55.25c0-1.657-1.343-3-3-3z" fill="#ffd064"/><path d="m277.831 164.387c9.662 2.299 18.885 6.122 27.332 11.328l17.761-7.879 20.926 20.925-7.879 17.761c5.205 8.448 9.029 17.671 11.328 27.333l18.122 6.975v29.606l-18.122 6.975c-2.299 9.649-6.123 18.872-11.328 27.319l7.879 17.761-20.926 20.939-17.761-7.893c-8.447 5.206-17.67 9.042-27.332 11.342l-6.975 18.109h-29.606l-6.975-18.122c-9.649-2.3-18.872-6.123-27.32-11.329l-17.761 7.893-20.938-20.939 7.892-17.748c-5.205-8.46-9.042-17.683-11.341-27.332l-18.11-6.975v-29.606l18.11-6.975c2.299-9.662 6.136-18.885 11.341-27.333l-7.892-17.761 20.938-20.925 17.748 7.879c8.461-5.206 17.684-9.029 27.333-11.328l6.975-18.123h29.606z" fill="#ffe177"/><path d="m316.957 170.484 5.967-2.648 20.926 20.925-7.879 17.761c5.205 8.448 9.029 17.671 11.328 27.333l18.122 6.975v29.606l-18.122 6.975c-2.299 9.649-6.123 18.872-11.328 27.319l7.879 17.761-20.926 20.939-5.967-2.648 18.29-18.291-7.892-17.761c5.205-8.447 9.029-17.67 11.328-27.319l18.123-6.975v-29.606l-18.123-6.975c-2.299-9.662-6.123-18.885-11.328-27.333l7.892-17.761zm-130.411 0 2.648-2.648 17.748 7.879c-1.253.698-2.493 1.421-3.707 2.183zm91.285-6.097c9.662 2.299 18.885 6.122 27.332 11.328l-4.895 2.183c-8.448-5.206-21.391-11.212-31.053-13.511l-6.975-18.123h8.616zm-70.876 171.15-17.761 7.893-2.648-2.648 16.689-7.415c1.214.75 2.454 1.473 3.72 2.17zm98.208 0c-8.447 5.206-17.67 9.042-27.332 11.342l-6.975 18.109h-8.616l6.975-18.109c9.662-2.3 22.605-8.306 31.066-13.512z" fill="#ffd064"/><path d="m256.054 207.126c26.79 0 48.505 21.716 48.505 48.505 0 26.78-21.715 48.495-48.505 48.495-26.779 0-48.495-21.715-48.495-48.495 0-26.789 21.716-48.505 48.495-48.505z" fill="#eceff1"/><path d="m256.054 207.126c1.104 0 2.198.04 3.291.118-25.252 1.685-45.224 22.701-45.224 48.387 0 25.676 19.972 46.692 45.224 48.387-1.093.069-2.187.108-3.291.108-26.779 0-48.495-21.715-48.495-48.495 0-26.789 21.716-48.505 48.495-48.505z" fill="#d1d1d6"/><path d="m419.025 495.187c-40.543 0-73.606-33.063-73.606-73.606s33.063-73.606 73.606-73.606 73.617 33.063 73.617 73.606-33.074 73.606-73.617 73.606z" fill="#ffc338"/><path d="m483.853 421.581c0-39.177-30.604-71.203-69.212-73.48 1.446-.08 2.915-.126 4.384-.126 40.657 0 73.617 32.949 73.617 73.606s-32.96 73.606-73.617 73.606c-1.469 0-2.938-.045-4.384-.125 38.608-2.277 69.212-34.304 69.212-73.481z" fill="#f5b829"/><path d="m360.286 158.917h121.939c3.417 0 6.347-1.469 8.382-4.208 2.034-2.739 2.608-5.982 1.617-9.242-9.19-30.483-37.482-52.689-70.964-52.689s-61.783 22.206-70.973 52.689c-.982 3.26-.417 6.503 1.617 9.242 2.035 2.739 4.973 4.208 8.382 4.208z" fill="#8ac9fe"/><path d="m482.225 158.917c3.417 0 6.347-1.469 8.382-4.208 2.034-2.739 2.608-5.982 1.617-9.242-9.19-30.483-37.482-52.689-70.964-52.689-3.547 0-7.034.253-10.442.731 28.813 4.069 52.306 24.701 60.522 51.958.991 3.26.426 6.503-1.608 9.242-2.035 2.739-4.974 4.208-8.382 4.208z" fill="#60b7ff"/><path d="m421.26 88.987c20.641 0 37.473-16.833 37.473-37.473 0-20.641-16.832-37.473-37.473-37.473s-37.473 16.832-37.473 37.473c0 20.64 16.832 37.473 37.473 37.473z" fill="#f6dccd"/><path d="m421.26 14.041c20.693 0 37.473 16.78 37.473 37.473 0 20.701-16.78 37.473-37.473 37.473-1.774 0-3.521-.122-5.225-.357 18.223-2.547 32.256-18.188 32.256-37.116 0-18.919-14.033-34.569-32.256-37.108 1.704-.235 3.451-.365 5.225-.365z" fill="#f1cbbc"/><path d="m450.392 87.219c28.272 10.765 49.047 36.712 52.377 67.875.241 2.257-.488 4.51-2.005 6.198s-3.68 2.652-5.95 2.652h-147.223c-2.27 0-4.434-.965-5.951-2.654s-2.246-3.943-2.003-6.2c3.346-31.163 24.128-57.109 52.392-67.873-9.922-8.347-16.244-20.85-16.244-34.779 0-25.021 20.397-45.438 45.418-45.438 25.043 0 45.437 20.418 45.437 45.438 0 13.93-6.322 26.433-16.248 34.781zm-29.189-5.344c16.225 0 29.437-13.228 29.437-29.437 0-16.21-13.212-29.438-29.437-29.438-16.208 0-29.418 13.229-29.418 29.438 0 16.208 13.21 29.437 29.418 29.437zm0 16c-30.958 0-56.943 21.312-64.09 50.069h128.185c-7.133-28.757-33.121-50.069-64.095-50.069zm-137.767 61.093c7.454 2.113 14.629 5.086 21.401 8.869l13.725-6.102c3.025-1.345 6.566-.688 8.907 1.653l20.587 20.587c2.338 2.338 2.997 5.873 1.658 8.896 0 0-6.082 13.729-6.082 13.729 3.787 6.778 6.763 13.963 8.877 21.441l13.996 5.386c3.088 1.189 5.126 4.157 5.126 7.466v29.121c0 3.31-2.038 6.277-5.126 7.466 0 0-14.001 5.389-14.001 5.388-2.118 7.454-5.104 14.63-8.876 21.401l6.086 13.738c1.339 3.023.68 6.558-1.658 8.896l-20.587 20.587c-2.338 2.338-5.874 2.997-8.897 1.658 0 0-13.724-6.079-13.723-6.079-6.763 3.784-13.955 6.758-21.416 8.871l-5.387 13.999c-1.189 3.089-4.157 5.126-7.466 5.126h-29.121c-3.31 0-6.278-2.037-7.466-5.126 0 0-5.387-13.997-5.387-13.997-7.475-2.118-14.657-5.106-21.431-8.879l-13.738 6.085c-3.023 1.339-6.559.68-8.897-1.658l-20.587-20.587c-2.341-2.341-2.998-5.882-1.653-8.907 0 0 6.1-13.719 6.101-13.719-3.782-6.759-6.757-13.948-8.886-21.405l-14.01-5.392c-3.089-1.189-5.127-4.156-5.127-7.466v-29.121c0-3.309 2.038-6.277 5.127-7.466 0 0 14.007-5.391 14.007-5.39 2.13-7.475 5.106-14.656 8.891-21.431l-6.103-13.724c-1.345-3.025-.688-6.566 1.653-8.907l20.587-20.587c2.341-2.341 5.882-2.998 8.907-1.653 0 0 13.725 6.102 13.725 6.102 6.774-3.784 13.952-6.758 21.408-8.871l5.415-14.033c1.191-3.086 4.157-5.12 7.464-5.12h29.121c3.311 0 6.28 2.039 7.467 5.13zm-13.462 9.573-4.891-12.728h-18.136l-4.916 12.739c-.949 2.46-3.049 4.294-5.614 4.903-8.672 2.061-16.943 5.488-24.545 10.172-2.248 1.385-5.034 1.572-7.447.499l-12.457-5.539-12.815 12.816 5.539 12.457c1.072 2.412.885 5.199-.5 7.447-4.687 7.607-8.115 15.885-10.205 24.591-.614 2.56-2.448 4.654-4.905 5.599 0 0-12.704 4.889-12.704 4.889v18.135l12.704 4.889c2.455.945 4.288 3.036 4.904 5.594 2.089 8.676 5.514 16.978 10.2 24.557 1.391 2.249 1.58 5.041.506 7.458l-5.539 12.456 12.821 12.822 12.461-5.52c2.404-1.065 5.178-.881 7.42.493 7.606 4.66 15.881 8.118 24.586 10.181 2.57.609 4.673 2.446 5.622 4.911 0 0 4.889 12.703 4.889 12.703h18.135l4.889-12.703c.948-2.463 3.049-4.3 5.616-4.91 8.668-2.06 16.963-5.483 24.534-10.165 2.246-1.389 5.033-1.58 7.448-.51 0 0 12.461 5.52 12.461 5.52l12.827-12.827-5.52-12.462c-1.064-2.404-.88-5.177.493-7.419 4.661-7.608 8.12-15.883 10.183-24.562.61-2.568 2.447-4.669 4.909-5.617 0 0 12.704-4.889 12.704-4.889v-18.135l-12.704-4.889c-2.464-.948-4.302-3.052-4.911-5.622-2.06-8.698-5.486-16.968-10.17-24.568-1.383-2.245-1.571-5.027-.504-7.437l5.52-12.462-12.821-12.821-12.457 5.539c-2.413 1.073-5.199.886-7.447-.499-7.602-4.684-15.872-8.111-24.545-10.172-2.569-.61-4.671-2.449-5.618-4.914zm-13.969 28.105c32.484 0 58.822 26.309 58.822 58.793 0 32.483-26.34 58.822-58.822 58.822-32.484 0-58.793-26.338-58.793-58.822 0-32.485 26.307-58.793 58.793-58.793zm0 16c-23.645 0-42.793 19.148-42.793 42.793 0 23.646 19.147 42.822 42.793 42.822 23.647 0 42.822-19.175 42.822-42.822 0-23.646-19.176-42.793-42.822-42.793zm-163.953-203.043c45.083 0 81.611 36.528 81.611 81.611 0 45.084-36.528 81.612-81.611 81.612-45.084 0-81.612-36.528-81.612-81.612 0-45.083 36.528-81.611 81.612-81.611zm0 16c-36.245 0-65.612 29.367-65.612 65.611 0 36.245 29.367 65.612 65.612 65.612s65.611-29.367 65.611-65.612c0-36.244-29.366-65.611-65.611-65.611zm-33.49 110.405c-3.122 3.122-8.192 3.122-11.314 0s-3.122-8.192 0-11.314l4.25-4.249c3.122-3.122 8.191-3.122 11.313 0 3.123 3.122 3.123 8.191 0 11.313zm88.825-52.794c4.416 0 8 3.585 8 8 0 4.416-3.584 8-8 8h-6.01c-4.415 0-8-3.584-8-8 0-4.415 3.585-8 8-8zm-10.552 41.48c3.122 3.122 3.122 8.192 0 11.314s-8.191 3.122-11.314 0l-4.249-4.25c-3.122-3.122-3.122-8.191 0-11.313s8.191-3.122 11.314 0zm-52.793-88.805c0-4.415 3.584-8 8-8 4.415 0 8 3.585 8 8v5.99c0 4.415-3.585 8-8 8-4.416 0-8-3.585-8-8zm16 110.651c0 4.415-3.585 8-8 8-4.416 0-8-3.585-8-8v-5.99c0-4.415 3.584-8 8-8 4.415 0 8 3.585 8 8zm-63.326-47.326c-4.415 0-8-3.584-8-8 0-4.415 3.585-8 8-8h5.99c4.415 0 8 3.585 8 8 0 4.416-3.585 8-8 8zm47.336-35.845c0-4.415 3.584-8 8-8 4.415 0 8 3.585 8 8v23.226l14.605 8.43c3.825 2.207 5.137 7.104 2.93 10.928s-7.104 5.137-10.928 2.93l-18.606-10.74c-2.476-1.429-4.001-4.07-4.001-6.929zm41.469-16.948c3.123-3.122 8.192-3.122 11.314 0s3.122 8.192 0 11.314l-4.249 4.249c-3.123 3.122-8.192 3.122-11.314 0s-3.122-8.191 0-11.313zm-78.273 11.314c-3.122-3.122-3.122-8.192 0-11.314s8.192-3.122 11.314 0l4.249 4.25c3.123 3.122 3.123 8.191 0 11.313-3.122 3.122-8.191 3.122-11.313 0zm126.415 308.674v126.847c0 4.418-3.581 8-8 8h-31.908c-4.418 0-8-3.582-8-8v-126.847c0-4.418 3.582-8 8-8h31.908c4.419 0 8 3.582 8 8zm-16 8h-15.908v110.847h15.908zm-43.264 25.523v93.324c0 4.418-3.581 8-8 8h-31.908c-4.418 0-8-3.582-8-8v-93.324c0-4.419 3.582-8 8-8h31.908c4.419 0 8 3.581 8 8zm-16 8h-15.908v77.324h15.908zm-83.213 16.073h31.949c4.418 0 8 3.582 8 8v61.251c0 4.418-3.582 8-8 8h-31.949c-4.419 0-8-3.582-8-8v-61.251c0-4.418 3.581-8 8-8zm8 16v45.251h15.949v-45.251zm395.79 62.995c-44.94 0-81.612-36.672-81.612-81.612 0-44.939 36.672-81.611 81.612-81.611 44.939 0 81.611 36.672 81.611 81.611 0 44.94-36.672 81.612-81.611 81.612zm0-16c36.129 0 65.611-29.483 65.611-65.612s-29.482-65.611-65.611-65.611-65.612 29.482-65.612 65.611 29.483 65.612 65.612 65.612zm-8-108.791v-3.409c0-4.416 3.584-8 8-8 4.415 0 8 3.584 8 8v3.323c8.783 2.078 16.844 7.803 21.044 17.794 1.711 4.07-.204 8.764-4.274 10.475-4.071 1.711-8.764-.204-10.475-4.274-3.68-8.754-13.504-10.486-20.546-7.714-3.926 1.545-7.136 4.665-6.914 9.274.174 3.553 2.529 5.539 5.268 6.879 2.853 1.394 6.154 2.168 9.258 2.679 13.444 2.2 28.121 8.427 30.073 24.411l.001.011c1.866 15.453-10.357 24.55-23.435 27.134v3.185c0 4.415-3.585 8-8 8-4.416 0-8-3.585-8-8v-3.302c-11.013-2.421-20.44-9.774-23.373-21.554-1.067-4.285 1.546-8.629 5.83-9.696 4.285-1.067 8.629 1.546 9.696 5.83 1.842 7.4 9.387 10.469 16.617 10.299 3.947-.094 8.349-1.056 11.587-3.288 2.11-1.454 3.562-3.623 3.194-6.685-.501-4.09-3.342-6.296-6.582-7.766-3.188-1.446-6.806-2.235-10.191-2.789l-.008-.001c-13.182-2.171-27.15-8.896-27.916-24.568v-.004c-.582-12.036 6.786-20.903 17.034-24.937 1.329-.523 2.704-.96 4.112-1.307zm20.491-130.77v-56.632c0-4.416 3.585-8 8-8 4.416 0 8 3.584 8 8v64.617c-.208 7.36-8 8.015-8 8.015h-50.183c-4.415 0-8-3.585-8-8s3.585-8 8-8zm-175.477-185.564c7.487-.167 8.599 3.738 8.015 8v50.183c0 4.415-3.585 8-8 8-4.416 0-8-3.585-8-8v-42.183h-56.633c-4.415 0-8-3.585-8-8 0-4.416 3.585-8 8-8zm-191.448 193.14c0-7.552 8-8.015 8-8.015h50.183c4.415 0 8 3.585 8 8s-3.585 8-8 8h-42.183v56.632c0 4.416-3.585 8-8 8s-8-3.584-8-8zm199.463 183.795h56.632c4.415 0 8 3.585 8 8s-3.585 8-8 8h-64.632c-4.419 0-8-3.582-8-8v-50.183c0-4.415 3.584-8 8-8 4.415 0 8 3.585 8 8z"/></svg>